<svg xmlns="http://www.w3.org/2000/svg" version="1.1" xmlns:xlink="http://www.w3.org/1999/xlink" xmlns:svgjs="http://svgjs.dev/svgjs" width="2000" height="1247" viewBox="0 0 2000 1247"><g transform="matrix(1,0,0,1,-1.2121212121212466,0.504858299595071)"><svg viewBox="0 0 396 247" data-background-color="#ffffff" preserveAspectRatio="xMidYMid meet" height="1247" width="2000" xmlns="http://www.w3.org/2000/svg" xmlns:xlink="http://www.w3.org/1999/xlink"><g id="tight-bounds" transform="matrix(1,0,0,1,0.2400000000000091,-0.09999999999999432)"><svg viewBox="0 0 395.52 247.2" height="247.2" width="395.52"><g><svg></svg></g><g><svg viewBox="0 0 395.52 247.2" height="247.2" width="395.52"><g transform="matrix(1,0,0,1,87.479445,47.215199999999996)"><svg viewBox="0 0 220.56110999999999 152.7696" height="152.7696" width="220.56110999999999"><g><svg viewBox="0 0 220.56110999999999 152.7696" height="152.7696" width="220.56110999999999"><g><svg viewBox="0 0 220.56110999999999 152.7696" height="152.7696" width="220.56110999999999"><g><svg viewBox="0 0 220.56110999999999 152.7696" height="152.7696" width="220.56110999999999"><g><svg viewBox="0 0 220.56110999999999 152.7696" height="152.7696" width="220.56110999999999"><g><svg viewBox="0 0 220.56110999999999 152.7696" height="152.7696" width="220.56110999999999"><g transform="matrix(1,0,0,1,0,0)"><svg width="220.56110999999999" viewBox="2.5 -40 57.75 40" height="152.7696" data-palette-color="#313bac"><path d="M19.85 0L2.5 0 2.5-40 4-40 4-1.3 19.85-1.3 19.85 0ZM19.85-2.6L5.5-2.6 5.5-40 7-40 7-3.9 19.85-3.9 19.85-2.6ZM19.85-5.2L8.5-5.2 8.5-40 10-40 10-6.5 19.85-6.5 19.85-5.2ZM24.5 0L23 0 23-40 37.2-40 39.67-20.53 40.95-6 42.3-6 43.57-20.53 46.05-40 60.25-40 60.25 0 58.75 0 58.75-38.8 47.35-38.8 44.85-19.6 43.45-4.8 39.8-4.8 38.4-19.6 35.9-38.8 24.5-38.8 24.5 0ZM27.5 0L26 0 26-18.46 25.5-37.6 34.65-37.6 37.15-18.48 38.45-3.6 44.8-3.6 46.1-18.48 48.6-37.6 57.75-37.6 57.25-18.46 57.25 0 55.75 0 55.75-16.86 56.35-36.4 49.85-36.4 47.34-16.88 46-2.4 37.25-2.4 35.91-16.88 33.4-36.4 26.9-36.4 27.5-16.86 27.5 0ZM30.65 0L29.15 0 29.15-15.66 28.1-35.2 32.3-35.2 34.61-15.65 35.95-1.2 47.3-1.2 48.64-15.65 50.95-35.2 55.15-35.2 54.1-15.66 54.1 0 52.6 0 52.6-14.41 53.7-34 52.05-34 49.92-14.43 48.75 0 34.5 0 33.32-14.43 31.2-34 29.55-34 30.65-14.41 30.65 0Z" opacity="1" transform="matrix(1,0,0,1,0,0)" fill="#313bac" class="undefined-text-0" data-fill-palette-color="primary" id="text-0"></path></svg></g></svg></g></svg></g></svg></g></svg></g></svg></g></svg></g><path d="M269.781 41.215L269.781 0 22.581 0 22.581 247.2 269.781 247.2 269.781 205.985 256.004 205.985 256.004 233.423 36.358 233.423 36.358 13.777 256.004 13.777 256.004 41.215Z" fill="#313bac" stroke="transparent" data-fill-palette-color="primary"></path></svg></g><defs></defs></svg><rect width="395.52" height="247.2" fill="none" stroke="none" visibility="hidden"></rect></g></svg></g></svg>